<?xml version="1.0" encoding="utf-8"?>
<!-- Generator: Adobe Illustrator 16.0.0, SVG Export Plug-In . SVG Version: 6.00 Build 0)  -->
<!DOCTYPE svg PUBLIC "-//W3C//DTD SVG 1.1//EN" "http://www.w3.org/Graphics/SVG/1.1/DTD/svg11.dtd">
<svg version="1.1" id="Layer_1" xmlns="http://www.w3.org/2000/svg" xmlns:xlink="http://www.w3.org/1999/xlink" x="0px" y="0px"
	 width="1000px" height="273px" viewBox="0 0 1000 273" enable-background="new 0 0 1000 273" xml:space="preserve">
<g>
	<path fill="#FFFFFF" d="M39.281,231.755h97.874v9.166l-28.478,28.479H0V34.698l29.461-29.46h9.82V231.755z M61.54,211.46h75.615
		v9.166H51.72V5.237h9.82V211.46z"/>
	<path fill="#FFFFFF" d="M206.218,240.921l-29.46,29.46h-39.935L229.459,39.28L268.413,0h9.166l93.619,240.921l-29.46,29.46h-25.86
		L298.2,222.917h-85.108L206.218,240.921z M273.65,13.42h-1.31l-86.09,218.335h12.767l16.694-44.191h111.949l16.367,44.191h13.094
		L273.65,13.42z M323.405,176.435H219.967l53.029-132.572L323.405,176.435z M256.301,110.64l-22.914,56.629h44.191L256.301,110.64z"
		/>
	<path fill="#FFFFFF" d="M429.133,270.381h-46.809V34.698l29.461-29.46h47.791c48.774,0,71.686,23.896,71.686,55.647
		c0,20.295-11.455,35.353-26.187,45.173c21.277,9.493,41.572,29.133,41.572,61.54c0,12.766-4.256,29.133-11.457,39.28
		C504.748,249.759,474.633,270.381,429.133,270.381z M421.604,14.403v217.353h37.316c44.846,0,77.579-22.914,77.579-63.831
		c0-30.442-21.604-53.684-51.719-60.557c18.331-6.547,36.662-22.914,36.662-46.155c0-27.168-19.641-46.809-61.867-46.809H421.604z
		 M434.043,25.532h25.205c34.043,0,49.755,15.385,49.755,36.334c0,23.569-20.623,41.245-50.737,41.245h-24.223V25.532z
		 M434.043,113.586h21.931c43.864,0,68.087,22.914,68.087,54.666c0,34.042-27.824,52.374-64.813,52.374h-25.205V113.586z
		 M443.536,94.273h12.438c10.802,0,17.022-1.31,19.641-3.928s3.601-6.219,3.601-11.129c0-14.075-8.184-24.55-30.77-24.55h-4.91
		V94.273z M493.946,185.601c0-21.932-13.421-38.298-45.5-38.298h-4.91v64.485h14.403c16.367,0,25.532-2.946,29.788-7.201
		C491.655,200.658,493.946,195.748,493.946,185.601z"/>
	<path fill="#FFFFFF" d="M806.547,240.921l-29.46,29.46h-30.771v-49.755H631.421l-4.582-6.22L727.004,35.025L759.41,2.292
		l10.476,0.982l-97.548,179.054l0.655,0.655h111.623v48.773h12.11v-48.773h36.662v9.165l-26.842,27.497V240.921z M746.972,128.644
		l27.823-27.823l9.821,0.655v70.377H690.67L782.651,3.928l10.476,0.655l-86.418,158.104h40.263V128.644z M806.547,102.784v59.903
		h26.842v9.166h-36.662v-69.723L806.547,102.784z"/>
	<path fill="#FFFFFF" d="M888.705,272.672c-18.658,0-43.536-7.856-60.885-17.676l6.547-28.478l27.823-27.824
		c23.241,12.439,39.281,16.04,52.047,16.04c8.838,0,14.73-1.637,18.332-5.237c3.6-3.601,7.2-12.766,7.2-21.604
		c0-19.968-12.111-38.299-50.736-38.299h-27.825v-26.187l29.462-29.46h13.747c13.094,0,18.985-1.964,21.277-4.255
		c2.291-2.292,4.256-6.547,4.256-13.094c0-9.82-7.528-22.586-28.479-22.586c-18.331,0-38.626,7.856-55.32,19.313l-6.875-29.133
		l29.462-29.461c17.676-9.165,34.042-13.42,51.719-13.42c39.607,0,65.467,22.913,65.467,57.611
		c0,21.604-12.766,38.625-25.204,47.792c20.622,10.147,39.28,29.46,39.28,61.212c0,19.968-6.874,34.37-13.094,43.863
		C963.666,246.158,934.205,272.672,888.705,272.672z M863.827,221.935c17.349,8.184,33.062,13.093,53.356,13.093
		c41.244,0,72.342-28.151,72.342-67.104c0-33.061-23.896-53.029-52.047-59.903c20.295-6.219,38.298-25.205,38.298-49.101
		c0-28.479-21.604-48.446-55.319-48.446c-16.04,0-30.442,4.255-43.209,10.475l2.619,10.147c11.456-6.22,25.532-10.475,40.263-10.475
		c25.532,0,43.863,15.385,43.863,38.626c0,20.949-16.04,43.863-52.374,43.863h-14.403v9.82h9.493
		c42.554,0,70.05,21.932,70.05,55.975c0,32.407-24.877,55.32-58.921,55.32c-18.33,0-33.389-3.601-51.392-12.766L863.827,221.935z"/>
</g>
</svg>
