<?xml version="1.0" encoding="utf-8"?>
<!-- Generator: Adobe Illustrator 26.0.3, SVG Export Plug-In . SVG Version: 6.00 Build 0)  -->
<svg version="1.1" id="Layer_1" xmlns="http://www.w3.org/2000/svg" xmlns:xlink="http://www.w3.org/1999/xlink" x="0px" y="0px"
	 viewBox="0 0 100 100" style="enable-background:new 0 0 100 100;" xml:space="preserve">
	 <title>Lab 43</title>
<style type="text/css">
	.st0{fill:#FFFFFF;}
</style>
<g>
	<g>
		<path class="st0" d="M43.4,56.2c-2.3,0-2.4,0.3-3.2,2.6l-1.5,4.4c-2.4,7.3-1.5,8.6,3.8,9.3l1.8,0.2c1.1,0.5,0.7,3.3-0.5,3.7
			C38.7,76.1,33.3,76,28.1,76c-5.7,0-11,0.1-15.6,0.3c-1.2-1-0.9-3.1,0.3-3.7l3.7-0.4c5.7-0.6,6.5-1.7,8.7-9l1.5-4.8
			c0.5-1.8,0.3-2.1-1.8-2.1H1.1c-1.1-0.6-1.4-2-0.7-3.4l50-50.2c0.9-0.9,2-1.7,3.5-1.7h3.9c1.8,0,1.9,1.1,0,3L12.4,48.3
			c-1.1,1-1.6,1.9,1.8,1.9H27c2,0,2.2-0.1,2.7-1.6l5.1-16.4c0.7-2.4,2.3-3.2,3.8-3.9c2.6-1.3,8.5-3.2,10-3.2c1.3,0,1.8,0.7,1.6,1.8
			l-6.7,21.2c-0.5,1.8-0.7,2.1,1.7,2.1h7c1.6,0.7,0.6,5.1-1.3,6H43.4z"/>
	</g>
	<g>
		<path class="st0" d="M60.7,62.8c-2.2-0.2-3.5-3.6-2-5.4c4.7-1.6,13.6-5.1,18.5-8.1c4.9-3,8.4-6.5,8.4-10.5c0-4.3-3.2-7-8.1-7
			c-4.4,0-9.8,3.6-13.5,8.9c-1.6,0.4-2.9-0.7-3.1-2.1c5.1-8.6,14-13.5,23.4-13.5C92,25.1,100,28.9,100,37c0,6.4-6.1,10.6-15.9,14.1
			c-1.4,0.4-0.9,1.2,0.5,1.3c6.4,0.5,13.1,5.4,13.1,14.9c0,9.9-8.1,18.8-15.8,23.8c-9.3,6-20.4,8-27.1,8c-7.4,0-12.7-2.2-12.7-7.4
			c0-3.2,2.8-6,6.2-6c3.7,0,5.6,3.3,6.9,4.9c1.7,2,3.5,3.2,6.1,3.2c10.7,0,20.1-10.8,20.2-23.7c0.1-6.8-3.5-11.7-10.7-11.7
			C67.3,58.4,63.6,60.3,60.7,62.8z"/>
	</g>
</g>
</svg>
